<?xml version="1.0" encoding="utf-8"?>
<!-- Generator: Adobe Illustrator 23.0.1, SVG Export Plug-In . SVG Version: 6.00 Build 0)  -->
<svg version="1.1" id="Layer_1" xmlns="http://www.w3.org/2000/svg" xmlns:xlink="http://www.w3.org/1999/xlink" x="0px" y="0px"
	 viewBox="0 0 16 16" style="enable-background:new 0 0 16 16;" xml:space="preserve">
<style type="text/css">
	.st0{fill:#FFFFFF;}
	.st1{fill:#474747;}
</style>
<g id="Ell_pse_1">
	<path class="st0" d="M0.7,7.9C0.7,4,4,0.8,8,0.8s7.2,3.2,7.3,7.1C15.3,11.8,12,15,8,15c-2,0-5.6,0.2-7.3,0.2V7.9z"/>
	<path class="st1" d="M8,1.5c3.6,0,6.5,2.9,6.5,6.4s-2.9,6.4-6.5,6.4c-1.7,0-4.7,0.1-6.5,0.2V7.9C1.5,4.4,4.4,1.5,8,1.5 M8,0
		C3.6,0,0,3.5,0,7.9L0,16c0,0,5.4-0.2,8-0.2c4.4,0,8-3.5,8-7.9S12.4,0,8,0L8,0z"/>
</g>
<g id="Rectangle_1_copy">
	<rect x="5.1" y="6.3" class="st0" width="5.6" height="0.5"/>
	<polygon class="st1" points="11.5,5.8 4.5,5.8 4.5,7.3 11.5,7.3 	"/>
</g>
<g id="Rectangle_1_copy_2">
	<rect x="5.1" y="9.3" class="st0" width="5.6" height="0.5"/>
	<polygon class="st1" points="11.5,8.8 4.5,8.8 4.5,10.3 11.5,10.3 	"/>
</g>
</svg>
