<?xml version="1.0" encoding="utf-8"?>
<!-- Generator: Adobe Illustrator 23.0.1, SVG Export Plug-In . SVG Version: 6.00 Build 0)  -->
<svg version="1.1" id="Layer_1" xmlns="http://www.w3.org/2000/svg" xmlns:xlink="http://www.w3.org/1999/xlink" x="0px" y="0px"
	 viewBox="0 0 39 48" style="enable-background:new 0 0 39 48;" xml:space="preserve">
<style type="text/css">
	.st0{fill-rule:evenodd;clip-rule:evenodd;fill:#FFFFFF;}
	.st1{fill:#919191;}
</style>
<title>bookmark</title>
<g id="bookmark_icon">
	<path class="st0" d="M36.2,47.5L21.4,32.7c-0.1-0.1-0.2-0.2-0.4-0.2h-3c-0.1,0-0.3,0.1-0.4,0.2L2.8,47.5H0.5v-47h38v47H36.2z"/>
	<path class="st1" d="M38,1v46h-1.6L21.7,32.3C21.5,32.1,21.3,32,21,32h-3c-0.3,0-0.5,0.1-0.7,0.3L2.6,47H1V1H38 M39,0H0v48h3l15-15
		h3l15,15h3V0z"/>
</g>
</svg>
