<?xml version="1.0" encoding="utf-8"?>
<!-- Generator: Adobe Illustrator 23.0.1, SVG Export Plug-In . SVG Version: 6.00 Build 0)  -->
<svg version="1.1" id="Layer_1" xmlns="http://www.w3.org/2000/svg" xmlns:xlink="http://www.w3.org/1999/xlink" x="0px" y="0px"
	 viewBox="0 0 50 50" style="enable-background:new 0 0 50 50;" xml:space="preserve">
<g>
	<path d="M49,38.1c0-2.9-1.1-5.6-3.2-7.7l-9.2-9.2c-2.1-2.1-4.8-3.2-7.7-3.2c-4.8,0-9,3.1-10.4,7.7l1.9,0.6c1.2-3.8,4.6-6.3,8.5-6.3
		c2.4,0,4.6,0.9,6.3,2.6l9.2,9.2c1.7,1.7,2.6,3.9,2.6,6.3c0,4.9-4,8.9-8.9,8.9c-2.4,0-4.6-0.9-6.3-2.6l-9.2-9.2
		c-0.3-0.3-0.6-0.6-0.8-0.9l-1.6,1.2c0.3,0.4,0.6,0.8,1,1.1l9.2,9.2c2.1,2.1,4.8,3.2,7.7,3.2C44.1,49,49,44.1,49,38.1z"/>
	<path d="M1,11.9c0,2.9,1.1,5.6,3.2,7.7l9.2,9.2c2.1,2.1,4.8,3.2,7.7,3.2c5.2,0,9.7-3.7,10.7-8.8l-2-0.4C29,27,25.4,30,21.1,30
		c-2.4,0-4.6-0.9-6.3-2.6l-9.2-9.2C3.9,16.5,3,14.3,3,11.9C3,7,7,3,11.9,3c2.4,0,4.6,0.9,6.3,2.6l9.2,9.2c0.3,0.3,0.5,0.5,0.7,0.8
		l1.6-1.2c-0.3-0.3-0.6-0.7-0.9-1l-9.2-9.2C17.5,2.1,14.8,1,11.9,1C5.9,1,1,5.9,1,11.9z"/>
</g>
</svg>
