<?xml version="1.0" encoding="utf-8"?>
<!-- Generator: Adobe Illustrator 23.0.1, SVG Export Plug-In . SVG Version: 6.00 Build 0)  -->
<svg version="1.1" id="Layer_1" xmlns="http://www.w3.org/2000/svg" xmlns:xlink="http://www.w3.org/1999/xlink" x="0px" y="0px"
	 viewBox="0 0 24 24" style="enable-background:new 0 0 24 24;" xml:space="preserve">
<style type="text/css">
	.st0{fill:#FAA61A;}
</style>
<g id="info">
</g>
<g id="icons">
	<path id="favorite" class="st0" d="M12.9,2.6l2.3,5c0.1,0.3,0.4,0.5,0.7,0.6L21.1,9c0.9,0,1.2,1,0.6,1.6l-3.8,3.9
		c-0.2,0.2-0.3,0.6-0.3,0.9l0.9,5.4c0.1,0.8-0.7,1.5-1.4,1.1l-4.7-2.6c-0.3-0.2-0.6-0.2-0.9,0l-4.7,2.6c-0.7,0.4-1.6-0.2-1.4-1.1
		l0.9-5.4c0.1-0.3-0.1-0.7-0.3-0.9l-3.8-3.9C1.7,10,2,9,2.8,8.9L8,8.1c0.3,0,0.6-0.3,0.7-0.6l2.3-5C11.5,1.8,12.5,1.8,12.9,2.6z"/>
</g>
</svg>
