<svg xmlns="http://www.w3.org/2000/svg" width="16.844" height="17" viewBox="0 0 16.844 17">
  <defs>
    <style>
      .cls-1 {
        fill: none;
        stroke: #1b1b1b;
        stroke-width: 1px;
        fill-rule: evenodd;
      }
    </style>
  </defs>
  <path class="cls-1" d="M817.714,319.974h0.565l2.826,3.948a1.838,1.838,0,0,1-.283,1.41c-0.447.329-1.7,1.128-1.7,1.128a15.323,15.323,0,0,0,4.8,5.076l1.413-1.692,0.283-.282a1.1,1.1,0,0,1,1.413,0c0.753,0.587,3.391,2.538,3.391,2.538a1.089,1.089,0,0,1,0,1.41c-0.565.846-1.7,2.256-1.7,2.256a4.035,4.035,0,0,1-2.543,0c-1.3-.47-5.581-1.867-7.912-4.64s-3.391-7.486-3.391-7.486a2.379,2.379,0,0,1,.282-1.692A23.628,23.628,0,0,1,817.714,319.974Z" transform="translate(-814.344 -319.469)"/>
</svg>
